<?xml version="1.0" encoding="utf-8"?>
<!-- Generator: Adobe Illustrator 27.2.0, SVG Export Plug-In . SVG Version: 6.00 Build 0)  -->
<svg version="1.1" id="Слой_1" xmlns="http://www.w3.org/2000/svg" xmlns:xlink="http://www.w3.org/1999/xlink" x="0px" y="0px"
	 viewBox="0 0 256 24.8" style="enable-background:new 0 0 256 24.8;" xml:space="preserve">
<g>
	<rect width="10" height="24.8"/>
	<path d="M35.5,12.5c0,3.1-1.5,5.6-4.1,5.6H20.2V6.9h11.2C34,6.9,35.5,9.4,35.5,12.5z"/>
	<path d="M40.7,0h8.1v24.8h-7.9c3-2.8,4.9-7.4,4.9-12.3C45.7,7.4,43.8,2.8,40.7,0z"/>
	<polygon points="79.3,0 84.7,0 84.7,24.8 79.3,24.8 79.3,20 58.9,20 58.9,16 79.3,16 79.3,8.9 58.9,8.9 58.9,5 79.3,5 	"/>
	<polygon points="94.9,9 106.8,24.8 94.9,24.8 	"/>
	<polygon points="100.8,0 110.2,0 110.2,13.4 	"/>
	<polygon points="123,0 132.3,24.8 120.5,24.8 120.5,0 	"/>
	<polygon points="134.3,0 144.6,0 139.5,16.6 	"/>
	<polygon points="151.3,12.5 155.9,24.8 146.7,24.8 	"/>
	<polygon points="157.9,0 168.2,0 163.1,16.6 	"/>
	<polygon points="186.6,0 175.2,24.8 170.2,24.8 179.5,0 	"/>
	<polygon points="200.5,22.6 201.4,24.8 186.5,24.8 187.4,22.6 	"/>
	<polygon points="256,0 256,24.8 212.7,24.8 201.3,0 	"/>
</g>
</svg>
