<?xml version="1.0" encoding="UTF-8"?>
<svg id="_Слой_1" data-name="Слой 1" xmlns="http://www.w3.org/2000/svg" viewBox="0 0 1000 678.27">
  <path d="m.02,678.14V.11h8.44c286.67,0,573.32.02,859.97-.11,5.25,0,8.66,1.69,12.08,5.49,54.01,59.97,87.8,130.29,105,208.57,25.04,113.97,18.35,225.88-25.5,334.7-18.4,45.65-43.76,87.15-76.46,124.11-3.44,3.89-6.91,5.41-12.08,5.41-287.71-.13-575.41-.11-863.12-.11H0l.02-.02Zm285.44-176.62c2.4.14,4.43.36,6.46.36,101.41,0,202.81.08,304.2-.13,8.85-.02,17.93-.87,26.49-3,36.42-9.02,59.49-33.89,73.23-67.06,24.58-59.4,25.04-119.92.82-179.41-19.6-48.17-55.25-73.34-109.31-72.71-97.45,1.15-194.93.33-292.37.33h-9.54v321.61h.02Z"/>
</svg>